<?xml version="1.0" encoding="utf-8"?>
<!-- Generator: Adobe Illustrator 24.2.0, SVG Export Plug-In . SVG Version: 6.00 Build 0)  -->
<svg version="1.1" id="Capa_1" xmlns="http://www.w3.org/2000/svg" xmlns:xlink="http://www.w3.org/1999/xlink" x="0px" y="0px"
	 viewBox="0 0 34 34" style="enable-background:new 0 0 34 34;" xml:space="preserve">
<style type="text/css">
	.st0{fill-rule:evenodd;clip-rule:evenodd;fill:#0B0B0A;}
</style>
<g id="Icons" transform="translate(0 0)">
	<g id="Color-" transform="translate(0 0)">
		<path id="Codepen" class="st0" d="M34,11.6C34,11.6,34,11.6,34,11.6c0-0.1,0-0.1,0-0.2c0,0,0,0,0-0.1s0-0.1,0-0.1c0,0,0,0,0-0.1
			c0,0,0-0.1,0-0.1c0,0,0,0,0-0.1c-0.1-0.1-0.1-0.2-0.2-0.2c0,0,0,0-0.1-0.1s-0.1,0-0.1-0.1s0,0-0.1-0.1l0,0L17.8,0.2
			c-0.5-0.3-1.1-0.3-1.6,0L0.7,10.6l0,0c-0.1,0-0.1,0.1-0.1,0.1c0,0,0,0-0.1,0.1c0,0,0,0.1-0.1,0.1c0,0-0.1,0.1-0.1,0.2
			c0,0,0,0,0,0.1s0,0.1,0,0.1s0,0,0,0.1c0,0,0,0.1,0,0.1c0,0,0,0,0,0.1c0,0,0,0.1,0,0.1c0,0,0,0,0,0.1c0,0.1,0,0.1,0,0.2v10.4
			c0,0.1,0,0.1,0,0.2c0,0,0,0,0,0.1c0,0,0,0.1,0,0.1c0,0,0,0,0,0.1s0,0.1,0,0.1s0,0,0,0.1s0,0.1,0,0.1s0,0,0,0.1
			c0.1,0.1,0.1,0.2,0.2,0.2c0,0,0,0,0.1,0.1c0,0,0.1,0.1,0.1,0.1l0,0l15.5,10.4c0.5,0.3,1.1,0.3,1.6,0l15.5-10.4l0,0
			c0,0,0,0,0.1-0.1s0.1,0,0.1-0.1s0,0,0.1-0.1c0.1-0.1,0.1-0.1,0.2-0.2c0,0,0,0,0-0.1c0,0,0-0.1,0-0.1c0,0,0,0,0-0.1s0-0.1,0-0.1
			s0,0,0-0.1c0,0,0-0.1,0-0.1c0,0,0,0,0-0.1c0-0.1,0-0.1,0-0.2V11.8C34,11.8,34,11.7,34,11.6z M18.5,4.2l11.4,7.6l-5.1,3.4L18.5,11
			V4.2z M15.5,4.2V11l-6.3,4.2l-5.1-3.4L15.5,4.2L15.5,4.2z M2.9,14.6L6.6,17l-3.7,2.4L2.9,14.6L2.9,14.6z M15.5,29.8L4.1,22.2
			l5.1-3.4l6.3,4.2L15.5,29.8z M17,20.5L11.8,17l5.2-3.5l5.2,3.5L17,20.5z M18.5,29.8V23l6.3-4.2l5.1,3.4L18.5,29.8L18.5,29.8z
			 M31.1,19.4L27.4,17l3.7-2.4V19.4z"/>
	</g>
</g>
</svg>
