<?xml version="1.0" encoding="utf-8"?>
<!-- Generator: Adobe Illustrator 24.2.0, SVG Export Plug-In . SVG Version: 6.00 Build 0)  -->
<svg version="1.1" id="Capa_1" xmlns="http://www.w3.org/2000/svg" xmlns:xlink="http://www.w3.org/1999/xlink" x="0px" y="0px"
	 viewBox="0 0 34 34" style="enable-background:new 0 0 34 34;" xml:space="preserve">
<style type="text/css">
	.st0{fill-rule:evenodd;clip-rule:evenodd;fill:#ECEFF4;}
</style>
<g id="Icons" transform="translate(-0.001)">
	<g id="Color-" transform="translate(0.001 0)">
		<path id="Facebook" class="st0" d="M18.2,34H1.9c-1,0-1.9-0.8-1.9-1.9V1.9C0,0.8,0.8,0,1.9,0c0,0,0,0,0,0h30.2
			c1,0,1.9,0.8,1.9,1.9v30.2c0,1-0.8,1.9-1.9,1.9h-8.7V20.8h4.4l0.7-5.1h-5.1v-3.3c0-1.5,0.4-2.5,2.5-2.5h2.7V5.3
			c-1.3-0.1-2.6-0.2-4-0.2c-3.9,0-6.6,2.4-6.6,6.8v3.8h-4.4v5.1h4.4L18.2,34L18.2,34z"/>
	</g>
</g>
</svg>
