<?xml version="1.0" encoding="utf-8"?>
<!-- Generator: Adobe Illustrator 24.2.0, SVG Export Plug-In . SVG Version: 6.00 Build 0)  -->
<svg version="1.1" id="Capa_1" xmlns="http://www.w3.org/2000/svg" xmlns:xlink="http://www.w3.org/1999/xlink" x="0px" y="0px"
	 viewBox="0 0 34 34" style="enable-background:new 0 0 34 34;" xml:space="preserve">
<path id="github" d="M17,0C8.6,0.1,1.4,6.3,0.2,14.6C-1.2,23,3.6,31.1,11.6,34c0.9,0.2,1.2-0.4,1.2-0.8c0-0.4,0-1.8,0-3.2
	c-4.3,0.8-5.4-1.1-5.7-2c-0.4-0.9-1-1.8-1.7-2.5c-0.6-0.3-1.4-1.1,0-1.2C6.4,24.4,7.4,25,7.9,26c0.5,0.9,1.2,1.5,2.2,1.8
	c0.9,0.3,1.9,0.1,2.8-0.3c0.1-0.9,0.5-1.7,1.1-2.3c-3.8-0.4-7.7-1.9-7.7-8.6c0-1.7,0.6-3.4,1.7-4.7c-0.5-1.5-0.5-3.2,0.2-4.6
	c0,0,1.4-0.5,4.7,1.8c2.8-0.8,5.7-0.8,8.5,0C24.5,6.7,26,7.2,26,7.2c0.6,1.5,0.7,3.1,0.2,4.6c1.2,1.3,1.8,3,1.7,4.7
	c0,6.7-4,8.2-7.8,8.6c0.8,0.9,1.2,2,1.1,3.2c0,2.3,0,4.2,0,4.8c0,0.5,0.3,1,1.2,0.8c8-2.8,12.8-11,11.4-19.3C32.5,6.3,25.4,0.1,17,0
	z"/>
</svg>
