<?xml version="1.0" encoding="utf-8"?>
<!-- Generator: Adobe Illustrator 24.2.0, SVG Export Plug-In . SVG Version: 6.00 Build 0)  -->
<svg version="1.1" id="Capa_1" xmlns="http://www.w3.org/2000/svg" xmlns:xlink="http://www.w3.org/1999/xlink" x="0px" y="0px"
	 viewBox="0 0 664 732" style="enable-background:new 0 0 664 732;" xml:space="preserve">
<style type="text/css">
	.st0{enable-background:new    ;}
	.st1{fill:#3B4252;}
</style>
<g class="st0">
	<path class="st1" d="M313.1,337.2H189.8v-82.4c0-24-1.3-38.9-4-44.9c-2.6-5.9-8.5-8.9-17.4-8.9c-10.2,0-16.6,3.6-19.3,10.8
		s-4.1,22.9-4.1,46.9V479c0,23,1.4,38.1,4.1,45.1c2.7,7,8.9,10.5,18.5,10.5c9.2,0,15.2-3.5,18-10.6c2.8-7,4.2-23.6,4.2-49.6v-59.6
		h123.3v18.5c0,49.1-3.5,83.9-10.4,104.4s-22.3,38.5-46,54S203.7,615,169,615c-36.1,0-65.9-6.5-89.4-19.6S40.6,564.1,33,541
		s-11.4-58-11.4-104.4V298c0-34.2,1.2-59.8,3.5-76.9s9.3-33.5,20.9-49.4c11.6-15.8,27.7-28.3,48.3-37.4s44.3-13.6,71-13.6
		c36.3,0,66.3,7,89.9,21.1c23.6,14,39.2,31.6,46.6,52.5c7.4,21,11.1,53.6,11.1,97.9v45H313.1z"/>
	<path class="st1" d="M640.3,305.3H517v-43.1c0-27.1-1.2-44.1-3.5-51c-2.3-6.8-7.9-10.3-16.7-10.3c-7.6,0-12.8,2.9-15.5,8.8
		c-2.7,5.9-4.1,20.9-4.1,45.1v227.6c0,21.3,1.4,35.3,4.1,42s8.2,10.1,16.4,10.1c9,0,15.1-3.8,18.3-11.4s4.8-22.5,4.8-44.5v-56.2
		h-24.9v-72.1h144.4V605h-77.5l-11.4-34c-8.4,14.6-19,25.6-31.8,33c-12.8,7.3-27.9,11-45.3,11c-20.7,0-40.1-5-58.2-15.1
		s-31.8-22.5-41.2-37.4c-9.4-14.8-15.2-30.4-17.6-46.7c-2.3-16.3-3.5-40.8-3.5-73.4V301.5c0-45.3,2.4-78.2,7.3-98.7
		s18.9-39.3,42-56.4s53.1-25.6,89.8-25.6c36.1,0,66.1,7.4,89.9,22.3c23.8,14.8,39.4,32.5,46.6,52.9c7.2,20.4,10.8,50.1,10.8,88.9
		v20.4H640.3z"/>
</g>
</svg>
