<?xml version="1.0" encoding="utf-8"?>
<!-- Generator: Adobe Illustrator 24.2.0, SVG Export Plug-In . SVG Version: 6.00 Build 0)  -->
<svg version="1.1" id="instagram" xmlns="http://www.w3.org/2000/svg" xmlns:xlink="http://www.w3.org/1999/xlink" x="0px" y="0px"
	 viewBox="0 0 34 34" style="enable-background:new 0 0 34 34;" xml:space="preserve">
<style type="text/css">
	.st0{fill:#ECEFF4;}
</style>
<path id="Trazado_5" class="st0" d="M17,3.1c4.5,0,5.1,0,6.9,0.1c1.1,0,2.1,0.2,3.2,0.6C27.8,4,28.4,4.5,29,5c0.6,0.5,1,1.2,1.3,2
	c0.4,1,0.6,2.1,0.6,3.2c0.1,1.8,0.1,2.3,0.1,6.9s0,5.1-0.1,6.9c0,1.1-0.2,2.1-0.6,3.2c-0.6,1.5-1.7,2.7-3.2,3.2
	c-1,0.4-2.1,0.6-3.2,0.6c-1.8,0.1-2.3,0.1-6.9,0.1s-5.1,0-6.9-0.1c-1.1,0-2.1-0.2-3.2-0.6C6.2,30,5.6,29.5,5,29
	c-0.6-0.5-1-1.2-1.3-2c-0.4-1-0.6-2.1-0.6-3.2c-0.1-1.8-0.1-2.3-0.1-6.9s0-5.1,0.1-6.9C3.2,9.1,3.4,8,3.7,7C4,6.2,4.5,5.6,5,5
	c0.5-0.6,1.2-1,2-1.3c1-0.4,2.1-0.6,3.2-0.6C11.9,3.1,12.5,3.1,17,3.1 M17,0c-4.6,0-5.2,0-7,0.1c-1.4,0-2.8,0.3-4.1,0.8
	c-1.1,0.4-2.2,1.1-3,2c-0.9,0.8-1.5,1.9-2,3C0.4,7.2,0.1,8.6,0.1,10C0,11.8,0,12.4,0,17s0,5.2,0.1,7c0,1.4,0.3,2.8,0.8,4.1
	c0.4,1.1,1.1,2.2,2,3c0.8,0.9,1.9,1.5,3,2c1.3,0.5,2.7,0.8,4.1,0.8c1.8,0.1,2.4,0.1,7,0.1s5.2,0,7-0.1c1.4,0,2.8-0.3,4.1-0.8
	c2.3-0.9,4.1-2.7,5-5c0.5-1.3,0.8-2.7,0.8-4.1c0.1-1.8,0.1-2.4,0.1-7s0-5.2-0.1-7c0-1.4-0.3-2.8-0.8-4.1c-0.4-1.1-1.1-2.2-2-3
	c-0.8-0.9-1.9-1.5-3-2c-1.3-0.5-2.7-0.8-4.1-0.8C22.2,0,21.6,0,17,0z M17,8.3c-4.8,0-8.7,3.9-8.7,8.7s3.9,8.7,8.7,8.7
	s8.7-3.9,8.7-8.7S21.8,8.3,17,8.3L17,8.3z M17,22.7c-3.1,0-5.7-2.5-5.7-5.7c0-3.1,2.5-5.7,5.7-5.7c3.1,0,5.7,2.5,5.7,5.7
	C22.7,20.1,20.1,22.7,17,22.7L17,22.7z M28.1,7.9c0,1.1-0.9,2-2,2c-1.1,0-2-0.9-2-2s0.9-2,2-2l0,0C27.2,5.9,28.1,6.8,28.1,7.9z"/>
</svg>
