<?xml version="1.0" encoding="utf-8"?>
<!-- Generator: Adobe Illustrator 24.2.0, SVG Export Plug-In . SVG Version: 6.00 Build 0)  -->
<svg version="1.1" id="Capa_1" xmlns="http://www.w3.org/2000/svg" xmlns:xlink="http://www.w3.org/1999/xlink" x="0px" y="0px"
	 viewBox="0 0 33.8 34" style="enable-background:new 0 0 33.8 34;" xml:space="preserve">
<style type="text/css">
	.st0{fill:#ECEFF4;}
</style>
<path id="linkedin" class="st0" d="M31.3,0H2.5C1.1,0,0,1.1,0,2.4c0,0,0,0,0,0v29.1C0,32.9,1.1,34,2.5,34c0,0,0,0,0,0h28.8
	c1.4,0,2.5-1.1,2.5-2.4c0,0,0,0,0,0V2.4C33.8,1.1,32.7,0,31.3,0C31.3,0,31.3,0,31.3,0z M10.3,28.5H5.2V13.2h5.1V28.5z M7.7,11
	L7.7,11C6.2,11.1,5,9.9,4.9,8.5S6,5.8,7.5,5.7c0.1,0,0.1,0,0.2,0c1.5-0.2,2.8,0.9,3,2.3c0.2,1.5-0.9,2.8-2.3,3C8.1,11,7.9,11,7.7,11
	z M28.6,28.5h-5.1v-8.2c0-2.1-0.7-3.4-2.6-3.4c-1.2,0-2.2,0.7-2.6,1.9c-0.1,0.4-0.2,0.8-0.2,1.2v8.5h-5.1V13.1h5.1v2.2
	c0.9-1.6,2.7-2.6,4.6-2.6c3.4,0,5.9,2.2,5.9,6.9L28.6,28.5z"/>
</svg>
