<?xml version="1.0" encoding="utf-8"?>
<!-- Generator: Adobe Illustrator 24.2.0, SVG Export Plug-In . SVG Version: 6.00 Build 0)  -->
<svg version="1.1" id="Capa_1" xmlns="http://www.w3.org/2000/svg" xmlns:xlink="http://www.w3.org/1999/xlink" x="0px" y="0px"
	 viewBox="0 0 41.8 34" style="enable-background:new 0 0 41.8 34;" xml:space="preserve">
<style type="text/css">
	.st0{fill:#ECEFF4;}
</style>
<g id="Twitter" transform="translate(0 -0.822)">
	<path id="Trazado_6" class="st0" d="M41.8,4.8c-1.6,0.7-3.2,1.2-4.9,1.4c1.8-1.1,3.1-2.8,3.8-4.8c-1.7,1-3.5,1.7-5.5,2.1
		C32,0.1,26.5-0.1,23.1,3.1c-2.2,2.1-3.2,5.2-2.5,8.2C13.7,11,7.3,7.8,2.9,2.4c-2.3,3.9-1.1,8.9,2.7,11.5c-1.4,0-2.7-0.4-3.9-1.1
		c0,0,0,0.1,0,0.1c0,4.1,2.9,7.6,6.9,8.4c-1.3,0.3-2.6,0.4-3.9,0.1c1.1,3.5,4.3,5.9,8,6c-3,2.4-6.8,3.7-10.7,3.7c-0.7,0-1.4,0-2-0.1
		c3.9,2.5,8.5,3.9,13.2,3.9c15.8,0,24.4-13.1,24.4-24.4c0-0.4,0-0.7,0-1.1C39.2,8.1,40.7,6.6,41.8,4.8"/>
</g>
</svg>
